<svg xmlns="http://www.w3.org/2000/svg" width="342.16" height="53.52" viewBox="0 0 90.53 14.16"><g style="fill:#007d55;fill-opacity:1"><path d="M549.858 527.806c-2.794 0-4.614-3.386-4.614-6.519 0-3.302 1.736-5.546 4.318-5.546 2.963 0 4.657 3.43 4.657 6.477 0 3.345-1.694 5.588-4.36 5.588m-.127-12.784c-3.683 0-6.646 3.005-6.646 6.773 0 3.725 2.963 6.731 6.646 6.731s6.689-3.006 6.689-6.731c0-3.768-3.006-6.773-6.689-6.773m-33.444 7.535c.847-2.286 1.947-5.165 1.947-5.165s1.1 2.752 2.075 5.165zm9.313 5.08c-.465 0-.973 0-1.27-.381-.211-.339-.55-1.143-.846-1.905a5006 5006 0 0 0-4.191-10.456l-1.101.592s-3.471 8.721-3.64 9.06a18 18 0 0 1-.636 1.608c-.465 1.059-.72 1.355-1.82 1.482h-.042v.635s1.185-.085 2.286-.085 2.243.085 2.243.085v-.635h-.635c-.592-.042-1.058-.085-1.058-.72 0-.254.042-.677.423-1.735.043-.085.297-.805.635-1.736h4.742c.508 1.27.931 2.328 1.058 2.625.17.465.339.846.339 1.016 0 .423-.339.55-.974.55h-.381v.635s1.693-.085 2.752-.085 2.159.085 2.159.085v-.635zm45.128-2.371c-.593 1.778-1.313 2.244-3.387 2.244-2.582 0-2.836-.55-2.836-1.863v-8.466c0-1.228.635-1.228 1.608-1.27h.085v-.635h-.296a93 93 0 0 1-4.869 0h-.127v.635h.043c.973.042 1.608.042 1.608 1.27v9.27c0 .382-.084.678-.296.89-.254.211-.677.338-1.27.296h-.085v.635h.043c1.65-.085 3.302-.085 4.868-.085 1.609 0 3.133 0 4.699.085h.042l.72-2.963-.55-.085zm14.308 0c-.55 1.778-1.312 2.244-3.386 2.244-2.583 0-2.794-.55-2.794-1.863v-8.466c0-1.228.635-1.228 1.566-1.27h.085v-.635h-.297a93 93 0 0 1-4.868 0h-.127v.635h.085c.973.042 1.608.042 1.608 1.27v9.27c0 .382-.127.678-.338.89-.254.211-.678.338-1.27.296h-.085v.635h.085c1.608-.085 3.26-.085 4.868-.085 1.566 0 3.09 0 4.657.085h.042l.72-2.963-.55-.085zm10.457 2.54c-2.794 0-4.615-3.386-4.615-6.519 0-3.302 1.736-5.546 4.318-5.546 2.964 0 4.7 3.43 4.7 6.477 0 3.345-1.736 5.588-4.403 5.588m-.127-12.784c-3.641 0-6.647 3.005-6.647 6.773 0 3.725 3.006 6.731 6.647 6.731 3.683 0 6.688-3.006 6.688-6.731 0-3.768-3.005-6.773-6.688-6.773m-62.273 11.388c0 .507.127 1.227 1.44 1.227h.38v.635c-1.1-.085-2.158-.085-2.92-.085-.805 0-1.567 0-2.413.085v-.635h.296c.635 0 1.27-.17 1.27-1.228v-9.144c0-.846-.17-1.185-.89-1.312-.38-.085-.719-.042-.719-.042v-.635s2.286.042 3.895.042c1.947 0 3.598.17 4.53.762.889.55 1.566 1.566 1.566 2.921 0 1.778-1.482 2.752-2.286 3.175-.889.381-1.905.593-2.71.593l-.042-.55c2.117-.382 2.879-1.525 2.879-3.218 0-1.905-1.228-2.836-2.794-2.963-1.016-.085-1.482.042-1.482.042z" style="fill:#007d55;fill-opacity:1;fill-rule:nonzero;stroke:none;stroke-width:.26458332" transform="translate(-511.79 -514.63)"/></g></svg>