<svg xmlns="http://www.w3.org/2000/svg" width="2500" height="2500" viewBox="0 0 192.756 192.756"><g fill-rule="evenodd" clip-rule="evenodd"><path fill="#fff" d="M0 0h192.756v192.756H0z"/><path fill="#0094d6" d="m116.871 102.404-39.227-.238.02-3.135L96.67 77.158 78.151 53.272l.016-2.635 38.323.233 1.025 14.75-3.395-.021c-.355-3.504-.629-5.843-2.178-7.353-1.543-1.503-4.262-2.467-6.678-2.482l-14.5-.088 14.641 19.021-17.028 19.48 17.871.108c3.373.021 5.033-.472 6.705-1.748 1.17-.892 2.318-3.224 3.455-6.706l3.287.844zM61.512 36.768l-5.868 6.217 2.039 1.925 5.588-5.92q1.317-1.394 2.253-1.434.941-.041 2.236 1.183l1.304 1.23q1.293 1.218 1.307 2.161.014.937-1.303 2.332l-5.536 5.864q-1.317 1.395-2.253 1.435-.941.04-2.233-1.18l-.261-.246 1.437-2.333 1.123 1.06 6.334-6.711-2.165-2.044-5.588 5.919q-1.308 1.384-2.241 1.422c-.623.021-1.366-.372-2.23-1.188l-1.049-.99c-.865-.816-1.3-1.535-1.315-2.158q-.015-.936 1.291-2.32l5.086-5.39q1.266-1.338 2.2-1.415.941-.076 2.11 1.028l.196.185-1.381 2.385zm15.249 1.966-5.859-11.675 2.718-1.364 5.859 11.675zm19.75-16.48-9.426 1.099.958 8.211 9.426-1.099-.336-2.887-4.935.575-.258-2.207 7.869-.918.52 4.466q.208 1.784-.379 2.503-.59.724-2.477.942l-8.948 1.044q-1.89.22-2.631-.347-.736-.564-.945-2.349l-.797-6.833c-.138-1.181-.009-2.011.379-2.498q.59-.726 2.48-.947l8.949-1.043c1.239-.145 2.116-.03 2.614.34q.747.562.943 2.234l.035.293-2.872.87zm10.762 10.961 4.541-12.248 2.307.855 3.023 9.543 8.389-5.311 2.283.846-4.543 12.248-2.643-.98 2.807-7.565q.081-.22.234-.548.157-.325.354-.723-.407.39-.691.629a7 7 0 0 1-.5.391l-6.869 4.412-.568-.211-2.334-7.853a8 8 0 0 1-.191-.817 5 5 0 0 1-.076-.703q-.105.395-.201.712c-.066.214-.139.417-.209.611l-2.807 7.565zm27.288 9.408 3.65 4.404 2.293-5.561zm-7.745-1.174 14.773-2.646 1.867 2.254-5.276 14.103-2.178-2.627 1.195-3.028-5.285-6.375-3.164.651zm-72.82 40.827-1.232-8.098-8.173 1.243 1.232 8.098 2.773-.422-.164 3.101-1.53.233q-1.771.27-2.512-.3-.744-.567-1.028-2.438l-1.173-7.706q-.287-1.881.255-2.642.54-.755 2.31-1.025l6.805-1.036c1.176-.179 2.01-.08 2.51.292q.746.563 1.033 2.445l1.173 7.706q.284 1.871-.261 2.633c-.366.513-1.133.855-2.309 1.034l-1.222.186-.933-2.934zm.223 6.694c1.072-.515 1.899-.664 2.486-.455q.878.321 1.703 2.036l4.159 8.662q.824 1.717.524 2.602c-.204.59-.837 1.143-1.909 1.656l-6.205 2.98q-1.615.774-2.486.455-.876-.323-1.7-2.039l-4.159-8.661q-.825-1.715-.528-2.6.294-.88 1.909-1.656zm-5.455 5.993 4.337 9.029 7.452-3.578-4.336-9.03zm7.227 18.838 7.742-10.521 1.98 1.457.276 10.008 9.528-2.793 1.96 1.441-7.742 10.521-2.27-1.67 4.782-6.498q.139-.19.376-.461.24-.271.54-.598a17 17 0 0 1-.839.414 6 6 0 0 1-.588.236l-7.818 2.348-.489-.359-.079-8.191c.002-.307.013-.586.042-.838.026-.248.068-.484.12-.697-.14.232-.27.445-.39.629q-.185.281-.369.529l-4.782 6.5zm32.793 5.164-6.561-1.926-.975 3.324 6.561 1.924q.758.222 1.101.086.344-.138.507-.695l.394-1.344q.16-.546-.055-.848-.215-.3-.972-.521m-12.471 7.597 3.677-12.533 10.721 3.145q1.493.436 1.996 1.209.499.775.125 2.051l-.822 2.801q-.372 1.269-1.209 1.648-.842.38-2.333-.061l-7.852-2.303-1.433 4.885zm20.859-8.755.305 10.6 8.656-.25-.305-10.6 3.027-.086.287 9.971q.05 1.791-.596 2.457c-.436.445-1.285.686-2.555.723l-8.246.238c-1.26.035-2.123-.154-2.582-.576-.464-.416-.711-1.225-.745-2.418l-.288-9.971zm20.947-1.756 3.781 10.037-2.846 1.072-3.781-10.035-5.609 2.113-.824-2.188 14.086-5.309.824 2.188zm12.832 5.205-8.512-9.91 10.148-8.713 1.447 1.686-7.84 6.732 1.902 2.215 4.576-3.93 1.447 1.686-4.576 3.93 2.109 2.457 7.934-6.811 1.602 1.865zm9.117-27.919-3.352 5.96 3.168 1.781 3.352-5.959q.39-.689.33-1.053-.056-.365-.562-.65l-1.371-.771q-.495-.278-.838-.137-.34.14-.727.829m4.598 13.86-11.385-6.402 5.475-9.739q.763-1.356 1.629-1.673.865-.311 2.025.34l2.676 1.505q1.152.648 1.336 1.549.186.908-.578 2.265l-.834 1.486 7.252-2.837-2.139 3.8-6.877 2.172-1.412 2.512 4.299 2.416zm.377-31.712-1.389 8.436 2.768.456 1.322-8.033q.312-1.893 1.066-2.449c.506-.375 1.34-.464 2.514-.271l1.77.291q1.754.288 2.291 1.062.536.769.225 2.662l-1.311 7.958q-.312 1.892-1.064 2.449-.758.56-2.512.271l-.354-.059-.113-2.737 1.523.251 1.498-9.106-2.938-.483-1.322 8.032q-.311 1.878-1.062 2.433-.757.55-2.514.262l-1.424-.234c-1.174-.193-1.936-.545-2.297-1.054q-.536-.767-.229-2.645l1.205-7.312q.3-1.817 1.031-2.403.739-.59 2.324-.327l.268.044.188 2.75z"/><path fill="#33348e" d="M8.504 161.127h3.098l1.345 5.35 1.699-5.35h2.886l1.761 5.35 1.345-5.35h3.076l-3.076 8.492h-2.845l-1.691-5.109-1.635 5.109h-2.864zm15.202 0h3.098l1.345 5.35 1.699-5.35h2.886l1.761 5.35 1.345-5.35h3.076l-3.076 8.492h-2.845l-1.691-5.109-1.635 5.109h-2.864zm15.201 0h3.098l1.345 5.35 1.699-5.35h2.886l1.761 5.35 1.345-5.35h3.077l-3.077 8.492h-2.845l-1.691-5.109-1.635 5.109h-2.864zm14.782 5.23h3.423v3.262h-3.423zm12.662 1.327h-4.059l-.559 1.936h-3.64l4.333-11.725h3.884l4.335 11.725h-3.729zm-.746-2.536-1.275-4.215-1.267 4.215zm6.166-7.253h5.921q1.934 0 2.896.938c.642.621.964 1.512.964 2.66q0 1.779-1.049 2.777c-1.049.998-1.769.998-3.205.998h-1.949v4.352h-3.578zm3.578 4.998h.872q1.03.001 1.447-.363.415-.364.416-.93 0-.554-.363-.936-.359-.387-1.358-.387h-1.015v2.616zm7.618.871q.001-2.871 1.573-4.469 1.574-1.6 4.381-1.6 2.878 0 4.438 1.572 1.556 1.572 1.557 4.4 0 2.058-.682 3.371a4.9 4.9 0 0 1-1.965 2.049q-1.285.731-3.205.73-1.949.001-3.229-.631-1.276-.632-2.072-2-.796-1.366-.796-3.422m3.565.017q-.001 1.775.646 2.551.65.774 1.767.775 1.148-.001 1.777-.758.63-.762.631-2.729-.001-1.656-.658-2.42-.655-.762-1.782-.762-1.075-.002-1.729.775-.651.777-.652 2.568m10.3-5.886h3.565v8.836h5.559v2.889h-9.124zm10.742 0h3.564v8.836h5.561v2.889h-9.125zm10.018 5.869q.002-2.871 1.574-4.469 1.574-1.6 4.381-1.6 2.878 0 4.436 1.572c1.558 1.572 1.557 2.516 1.557 4.4q0 2.058-.682 3.371a4.9 4.9 0 0 1-1.963 2.049q-1.287.731-3.207.73-1.948.001-3.229-.631-1.277-.632-2.072-2-.795-1.366-.795-3.422m3.564.017q0 1.775.648 2.551.648.774 1.766.775 1.148-.001 1.777-.758.629-.762.631-2.729-.001-1.656-.658-2.42-.656-.762-1.783-.762-1.074-.002-1.727.775t-.654 2.568m9.68 2.576h3.424v3.262h-3.424zm5.355-5.23h2.982v1.381q.667-.844 1.354-1.209.685-.364 1.666-.365 1.33.001 2.082.805.747.803.748 2.482v5.398h-3.215v-4.67q0-.8-.291-1.131-.292-.333-.818-.332-.582 0-.941.447-.363.446-.363 1.607v4.078h-3.203zm20.016 5.053h-6.416q.085.784.416 1.168.465.553 1.211.553.471 0 .896-.24.26-.152.559-.535l3.154.293q-.724 1.282-1.746 1.838-1.021.554-2.934.555-1.657 0-2.611-.475-.952-.475-1.576-1.514-.624-1.033-.625-2.434 0-1.99 1.254-3.221 1.256-1.234 3.465-1.234 1.793 0 2.828.555c.693.365 1.223.9 1.582 1.596q.544 1.048.543 2.727zm-3.254-1.559q-.095-.945-.5-1.352-.405-.409-1.064-.408c-.512 0-.916.207-1.223.615-.193.258-.316.637-.367 1.145zm8.588-6.726v3.232h1.76v2.375h-1.76v3.014q0 .545.102.721.156.272.549.273.355-.001.992-.211l.236 2.25q-1.188.262-2.219.262-1.197 0-1.76-.311a1.9 1.9 0 0 1-.838-.947q-.272-.636-.271-2.062v-2.988h-1.182v-2.375h1.182v-1.561zm3.293 8.462h3.422v3.262h-3.422zm5.371 6.495v-11.725h2.996v1.256q.623-.794 1.141-1.072a3.2 3.2 0 0 1 1.549-.377q1.674 0 2.594 1.305.914 1.302.914 3.223 0 2.118-.998 3.236-1 1.113-2.523 1.113-.742 0-1.35-.254a3.2 3.2 0 0 1-1.09-.762v4.057zm3.211-7.456q-.001 1.009.416 1.496.414.487 1.051.488.561 0 .938-.469c.377-.469.379-.842.379-1.586q-.001-1.032-.395-1.516-.392-.486-.959-.486-.616.001-1.021.488c-.276.328-.409.857-.409 1.585m7.625-7.501h3.211v11.725h-3.211z"/></g></svg>