<svg xmlns="http://www.w3.org/2000/svg" width="1024" height="383" viewBox="-1.749 -1.749 165.098 61.801"><path d="M28.6.002C12.3.002 0 12.502 0 29.102c0 16.8 12.3 29.1 29.3 29.1 8.4 0 16.3-3.7 21.7-10.2l-5.2-4.699c-4.1 4.9-10.1 7.799-16.5 7.899-12.7 0-22-9.3-22-22.1q0-.59.026-1.172C7.871 15.918 16.778 7.002 28.5 7.002c5.075 0 9.92 1.761 13.865 4.881q.847.67 1.635 1.42l4.9-4.8c-5.4-5.5-12.7-8.6-20.3-8.5m110.6.1c-16.3 0-28.6 12.5-28.6 29.1 0 16.8 12.3 29.101 29.3 29.101 8.4 0 16.3-3.701 21.7-10.201l-5.1-4.799c-4.1 4.9-10.1 7.799-16.5 7.899-12.7 0-22-9.3-22-22.1 0-12.6 9.1-22.1 21.2-22.1 5.074 0 9.92 1.761 13.866 4.881q.846.67 1.633 1.42l4.9-4.8c-5.4-5.4-12.7-8.501-20.4-8.401M56.5.803l22.2 56.5h5.1L106 .803h-7.6l-17.2 44-17.1-44z" style="fill:#1a4580"/></svg>