<svg xmlns="http://www.w3.org/2000/svg" width="136" height="40" fill="none"><g fill="#F60" clip-path="url(#a)"><path d="M136.025 1.018H99.601v6.531h36.424zm-99.783 0H13.366v6.531h22.876zm0 15.654H13.366v6.532h22.876zm0 15.778H13.366v6.53h22.876zM6.464 1.018H0V38.98h6.464zm114.569 13.549h-6.464v24.436h6.464zM56.89 19.988c0-7.434 5.984-13.456 13.319-13.456s13.318 6.045 13.318 13.456v.07h6.464v-.07C89.991 8.94 81.12 0 70.209 0S50.427 8.964 50.427 19.988c0 11.025 8.825 19.966 19.713 19.989v-6.532c-7.312-.046-13.25-6.068-13.25-13.457"/><path d="m73.617 19-4.571 4.62 15.82 15.984 4.57-4.619z"/></g><defs><clipPath id="a"><path fill="#fff" d="M0 0h136v40H0z"/></clipPath></defs></svg>