<svg xmlns="http://www.w3.org/2000/svg" width="1024" height="255" viewBox="-0.842 -0.842 119.721 29.76"><path d="m112.644 28.075-7.595-10.702H90.85v10.702H86.2V0h22.141c5.896 0 9.46 3.414 9.46 8.843 0 4.96-3.1 7.6-7.29 8.296l7.525 10.936zm.391-19.232c0-3.107-1.903-4.617-5.813-4.617H90.85v8.918h16.79c3.492 0 5.395-1.552 5.395-4.302M70.173 28.075 56.682 13.301l-8.455 6.243v8.531h-4.658V0h4.658v14.54L67.887 0h6.708L60.247 10.625l15.902 17.45zm-43.572 0L13.11 13.301l-8.451 6.243v8.531H0V0h4.658v14.54L24.313 0h6.71L16.675 10.625l15.902 17.45z" style="fill:#53284f;fill-rule:nonzero;stroke:none"/></svg>