<svg xmlns="http://www.w3.org/2000/svg" id="Layer_1" data-name="Layer 1" viewBox="0 0 469.6 97.9"><defs><style>.cls-1{fill:#070b31}</style></defs><path d="M185.2 69.1c-5-10.7-11.8-25.5-14.4-31.1s-3.8-5.8-7.6-6.2v-1.9h20.6v1.9l-2.4.2c-2.6.3-2.9.8-1.9 3.3 1.4 3.3 6.9 15.1 10.7 23.2 2.4-5.2 7.9-18.8 9-21.6 1.6-4.1 1.1-4.7-2.1-5l-2.1-.2v-1.9h16.9v1.9c-4.4.4-5.2.7-8.2 6.6-.4.8-9.3 18.5-14.7 30.7zm72.2-9.6c0 6.4.6 6.9 5.9 7.2v1.9h-21v-1.9c5.3-.4 5.9-.8 5.9-7.2V39c0-6.4-.6-6.9-5.9-7.2v-1.9h21v1.9c-5.3.4-5.9.8-5.9 7.2Zm41.2-2.3c1.2 3.3 5.3 9.7 12.4 9.7 4.7 0 7.4-2.9 7.4-6.3 0-4.1-2.6-6-8.1-8l-1.4-.5c-6-2.2-11.1-5.7-11.1-11.3 0-6.4 5.9-11.7 15.9-11.7a25.4 25.4 0 0 1 6.6.8c1.1.3 2.2.5 3.1.8.3 2.1.8 4.8 1.5 8.4l-2.6.4c-1.4-3.5-3.6-7.7-9.7-7.7-4.4 0-6.9 2.6-6.9 6 0 3 2.6 5.2 7.8 7l2.3.8c5.7 2 11 5.2 11 11.6 0 7-6.7 12.4-17 12.4a25.5 25.5 0 0 1-7.2-1 27 27 0 0 1-4.3-1.4c-.6-1.6-1.4-5.7-2.2-9.2Zm84.9 2.3c0 6.4.6 6.9 7 7.2v1.9h-23v-1.9c6.2-.4 6.7-.8 6.7-7.2V32.6h-1.8c-5.8 0-7.7.7-8.8 1.7-.9.8-1.8 2.5-2.6 5.5h-2.6c.3-4.2.7-8.3.9-11.4h1.4c1.3 1.4 2 1.5 3.9 1.5h28.8a4.91 4.91 0 0 0 3.9-1.5h1.4c.1 2.5.4 7.2.8 11.2l-2.6.2c-.7-3.2-1.5-4.9-2.6-5.8s-3.5-1.4-7.7-1.4h-3.1Zm60.2-19.1h.2l5.2 12.3h-10.4Zm6.3 28.2h19.6v-1.9c-3.8-.4-4.9-.7-7.4-6.3-2.7-6-5.9-13.1-8.9-20.2l-4.7-11.1-3.5.8-14.5 30.6c-2.5 5.4-3.4 5.7-7.7 6.1v1.9h16.2v-1.9l-1.8-.2c-3.3-.3-3.4-1-2.4-3.9.9-2.6 1.9-5.2 2.7-6.9h12.7c1.1 2.2 2.4 5.3 3.4 7.3 1.2 2.6.9 3.2-1.8 3.5l-1.9.2zM53.3 97.9S87.4 2.3 87.6 1.7A2.47 2.47 0 0 1 90.3 0h21.5L75.2 97.9z" class="cls-1"/><path d="M3.3 42A32 32 0 0 1 0 43.1l1.1 1.5s7.3 9.4 7.5 9.6c1.8 2.3 4.5 2.6 7.8 1.3C31.2 49.6 80 29.2 142.1 37.2c.1.1-58.7-26-138.8 4.8" class="cls-1"/><path d="M75.3 97.9H53.4L16.7 0h21.5c1.5 0 2.1.3 2.7 1.7.3.6 34.4 96.2 34.4 96.2" class="cls-1"/><path d="M75.3 97.9H53.4L16.7 0h21.5c1.5 0 2.1.3 2.7 1.7.3.6 34.4 96.2 34.4 96.2" class="cls-1"/></svg>