<svg xmlns="http://www.w3.org/2000/svg" width="2500" height="2500" viewBox="0 0 192.756 192.756"><g fill-rule="evenodd" clip-rule="evenodd"><path fill="#fff" d="M0 0h192.756v192.756H0z"/><path fill="#33348e" d="m7.058 83.468 3.716.275 2.202 17.34-3.303-.139zm9.359 17.477 2.752-17.202h2.064l-3.165 17.477zm-.551 2.891h2.34l-1.927 10.047-.963-6.744c-.001 0 .825-3.303.55-3.303m-2.615 0-3.578-.139 2.89 16.652h3.303zm171.687 19.719-3.715-.275-2.203-17.34 3.305.139zm-9.358-17.477-2.752 17.201h-2.064l3.164-17.477zm.551-2.89h-2.34l1.926-10.046.965 6.744c0-.001-.827 3.302-.551 3.302m2.615 0 3.578.137-2.891-16.651h-3.303zM52.334 84.294h3.028v36.745h-3.028zm42.663 1.101s-2.615 1.101-3.991 4.679 2.202 12.524 2.202 12.524l-3.303.137s-3.166-5.779-2.477-10.046c.688-4.266 3.991-7.431 3.991-7.431zm-.964 20.091s.55 2.479.55 4.404c0 1.928-3.715 11.836-3.715 11.836l-4.266-.414s2.477-2.338 3.716-4.816c1.238-2.477.137-11.01.137-11.01zm31.789-19.816h3.441v1.651h-3.441zm11.149.275h3.303v1.651h-3.303zm-5.782 0h3.717v37.02h-3.717zm-23.31-18.63s7.346-4.896 12.73-7.711c5.387-2.815 6.242-2.815 6.242-2.815h2.449s1.102-1.347 2.57-1.224c1.469.122 2.814.367 2.814 1.224 0 .856-.734 2.325-1.592 2.448-.855.123-1.957.123-1.957.123l-2.938 1.836-5.264.245-.98.489s-2.447-.489-3.672.123c-1.223.612-5.875 3.06-5.875 3.06s-.123 1.224-.979 1.714c-.857.489-1.959 1.224-1.959 1.224s-1.589-.981-1.589-.736m-2.203 2.204s.49.612.367 1.224c-.121.612-2.342 2.098-2.342 2.098s-1.357-.226-1.809.301c-.453.528-.303 1.885-.83 2.337s-1.508.151-2.072.302c-.566.151-2.111 1.319-2.111 1.319l-.377-.264 1.96-2.186s.791.038 1.168-.151c.377-.188.074-1.018.641-1.507.564-.49 1.734-.716 2.186-1.093.453-.377.34-1.018.98-1.395.641-.376 1.205-.98 1.695-1.018s.559-.049.544.033m19.707-14.077-11.016-5.019-8.445-1.714.244-1.224-2.57-.857v1.714l-1.592-.245-3.795-1.958s-1.344-1.208-1.17-1.614 1.104-.291 1.568 0c.465.291 2.615 2.033 2.615 2.033s.463.349.639 0c.174-.349-.117-.639-.117-.639s-4.182-2.44-5.344-3.602-3.776-4.589-3.776-4.589-.465-.464-.697-.174 2.963 4.415 2.963 4.415l-1.104.116s2.149 3.253 2.033 3.602-1.162.755-1.104 1.045 1.22 1.975 1.51 1.975 1.104-.755 1.104-.755 2.613 2.382 4.008 3.311c1.395.93 6.273 3.718 6.273 3.718s.232 1.104.582 1.278c.348.174 1.742-.059 2.266.29.521.349 2.266 2.034 3.078 2.15s1.916.058 1.916.058l.582.698h1.916l.291-.755 1.801-.174.117-.755-.408-.407-.057-.929 2.381-.058.756.523 2.381-.233.639-.349zm7.092 5.29.756.813 1.045.407 1.162.523s2.73 1.743 4.355 3.427c1.627 1.685 3.893 4.647 3.893 4.647l1.047.406.406.64 1.045.406 2.498.232 1.336 1.162 2.789.29s.58.116.406.581-.814.639-.814.639l-2.904-.291s-.58 1.22-.986 1.22-1.395-1.917-1.395-1.917-.35-.755-.697-.639-.812 1.22-1.162 1.22c-.348 0-1.104-.988-1.568-1.046-.465-.058-1.742-.174-1.742-.174l-.174-.407-2.383-.813s-2.148.058-2.613-.291-5.055-3.485-5.055-3.485-.465-.697-.871-.987-5.461-2.73-5.461-2.73.059-.988.988-1.104 2.266.581 2.266.581l2.963-.174s1.627.871 1.859.349c.23-.523-.117-1.394-.117-1.394l-1.395-1.046zm51.621-22.615c1.598 0 3.053.608 4.107 1.59 1.061.987 1.719 2.352 1.719 3.856s-.658 2.869-1.719 3.856a6.03 6.03 0 0 1-4.107 1.589c-1.6 0-3.053-.608-4.107-1.589-1.061-.987-1.719-2.353-1.719-3.856s.658-2.869 1.719-3.856a6.02 6.02 0 0 1 4.107-1.59m0 .692c-1.42 0-2.707.537-3.639 1.403-.924.86-1.496 2.046-1.496 3.351s.572 2.491 1.496 3.352a5.34 5.34 0 0 0 3.639 1.403 5.33 5.33 0 0 0 3.637-1.403c.924-.86 1.498-2.046 1.498-3.352 0-1.305-.574-2.491-1.498-3.351a5.33 5.33 0 0 0-3.637-1.403m-1.942 7.365v-4.85h2.061q.778 0 1.129.131.354.131.564.465c.21.334.213.477.213.764q-.001.546-.322.901-.321.356-.959.449.318.185.523.407.208.222.559.788l.592.946h-1.17l-.709-1.055q-.378-.566-.516-.713a.76.76 0 0 0-.295-.202q-.156-.055-.492-.055h-.199v2.025zm.979-2.799h.725q.705 0 .879-.06a.53.53 0 0 0 .275-.205.64.64 0 0 0 .1-.364.58.58 0 0 0-.131-.396.6.6 0 0 0-.369-.19 8 8 0 0 0-.715-.017h-.764zM113.83 150.096v2.459q0 .371.068.518.068.144.197.191v.18h-1.289a2.6 2.6 0 0 1-.111-.539q-.289.299-.611.479c-.322.18-.5.18-.857.18a1.6 1.6 0 0 1-.678-.143 1.17 1.17 0 0 1-.51-.439q-.196-.296-.195-.742 0-.425.17-.734.167-.307.463-.482.293-.174.691-.232l1.076-.162q.416-.057.416-.357 0-.331-.223-.432a1.4 1.4 0 0 0-.561-.098q-.397 0-.547.178a.87.87 0 0 0-.189.453h-1.152q.064-.651.359-1.002.293-.35.707-.469.418-.117.965-.117.404 0 .812.107.407.105.703.398c.296.293.296.463.296.805m-1.17 1.716v-.58q-.19.153-.811.248-.255.044-.43.109a.6.6 0 0 0-.277.203.6.6 0 0 0-.104.371q0 .28.172.412.172.134.383.133.27 0 .514-.111a1 1 0 0 0 .4-.312.77.77 0 0 0 .153-.473m14.707-2.91h1.145v4.301q0 .56-.129.996c-.129.436-.299.547-.639.768s-.85.33-1.531.33q-.499 0-.939-.146a1.7 1.7 0 0 1-.73-.455 1.18 1.18 0 0 1-.311-.766h1.299a.55.55 0 0 0 .211.344q.161.12.625.119.484-.001.717-.248.231-.25.232-.795v-.545l-.02-.018a1.4 1.4 0 0 1-.449.498q-.273.184-.762.184-.559 0-1.004-.262-.442-.262-.697-.791-.254-.53-.254-1.295 0-.566.15-1.012.151-.448.414-.74.263-.297.602-.441.34-.146.721-.145.946 0 1.332.795h.018zm-2.008 2.297q0 .312.096.602c.096.29.166.352.307.477a.8.8 0 0 0 .545.186q.376-.001.605-.188.229-.188.32-.484c.091-.296.092-.412.092-.645q0-.372-.119-.676a1.1 1.1 0 0 0-.354-.479.9.9 0 0 0-.553-.176.84.84 0 0 0-.457.133q-.211.131-.346.441-.136.311-.136.809m16.321.912h1.23q-.217.757-.773 1.104a2.26 2.26 0 0 1-1.223.348q-.493 0-.906-.131a1.84 1.84 0 0 1-.717-.42 2 2 0 0 1-.473-.775q-.166-.485-.166-1.158-.001-.285.074-.652.074-.37.295-.746.22-.379.666-.637.449-.26 1.141-.26.377 0 .746.109.367.108.682.381t.512.773q.194.5.195 1.238v.213h-3.115q.025.275.096.506.07.228.303.416c.233.188.377.188.668.188a.9.9 0 0 0 .48-.135.6.6 0 0 0 .285-.362m-1.799-1.39h1.852q-.044-.503-.314-.73a.92.92 0 0 0-.607-.227q-.821 0-.931.957m17.426-.418v3.141h-1.195v-2.758q0-.235-.043-.424a.6.6 0 0 0-.215-.33q-.173-.144-.52-.143a.96.96 0 0 0-.479.121.83.83 0 0 0-.336.357q-.123.24-.123.572v2.604h-1.193v-4.541h1.141v.664h.018q.466-.782 1.367-.783.452 0 .811.174.357.176.562.518.204.342.205.828m13.257 1.484h1.209q-.02.227-.119.514c-.099.287-.176.385-.328.578q-.232.292-.637.488c-.405.196-.6.195-.99.195q-.603 0-1.02-.205-.416-.208-.65-.541c-.234-.333-.266-.465-.332-.727a3.3 3.3 0 0 1-.098-.789q0-.754.229-1.32.227-.566.715-.881.49-.316 1.234-.316.427 0 .863.154.439.152.764.541.326.392.379 1.045h-1.211q-.131-.734-.795-.734a.8.8 0 0 0-.562.199 1.07 1.07 0 0 0-.299.494 2.2 2.2 0 0 0-.088.623q0 .37.051.68.05.309.256.553c.206.244.342.244.615.244a.73.73 0 0 0 .459-.143.9.9 0 0 0 .355-.652m15.54-2.885-1.562 4.465q-.224.675-.377 1.037-.153.36-.326.549a.86.86 0 0 1-.408.254 2.6 2.6 0 0 1-.648.066q-.153-.001-.537-.02v-.955q.103.018.23.018.369 0 .541-.125.17-.125.244-.561l-1.674-4.729h1.332l.975 3.348h.018l.932-3.348zm-181.46-1.23v1.23h.744v.854h-.744v2.469a.8.8 0 0 0 .024.229q.026.068.129.104.102.035.343.035.077 0 .248-.016v.9q-.422.02-.564.02H4.67q-.494 0-.761-.117c-.267-.117-.299-.189-.364-.33a1.3 1.3 0 0 1-.096-.535v-2.758h-.615v-.854h.616v-1.23h1.194zm10.943 5.771v-4.541h1.142v.787h.018a3.5 3.5 0 0 1 .306-.484q.139-.18.368-.301.23-.12.571-.121.078 0 .231.016v1.215a2 2 0 0 0-.341-.018q-1.1-.001-1.1 1.082v2.365zm16.452-3.347v2.459q0 .371.067.518.068.144.197.191v.18h-1.289a2.4 2.4 0 0 1-.11-.539 2.7 2.7 0 0 1-.612.479q-.321.18-.858.18-.36 0-.677-.143a1.17 1.17 0 0 1-.51-.439q-.195-.296-.195-.742 0-.425.169-.734.17-.307.463-.482.293-.174.692-.232l1.076-.162q.418-.057.417-.357 0-.332-.224-.432a1.4 1.4 0 0 0-.561-.098q-.396 0-.546.178a.87.87 0 0 0-.189.453h-1.152q.064-.651.358-1.002a1.4 1.4 0 0 1 .709-.469q.416-.117.963-.117.405 0 .812.107.406.105.703.398.297.29.297.805m-1.17 1.716v-.58q-.192.152-.811.248a2.4 2.4 0 0 0-.429.109.6.6 0 0 0-.277.203.6.6 0 0 0-.105.371q0 .28.173.412.174.134.382.133.27 0 .515-.111a1 1 0 0 0 .399-.312.77.77 0 0 0 .153-.473m15.765-2.91-1.639 4.541H43.74l-1.632-4.541h1.332l.941 3.348h.016l.966-3.348zm12.783 3.209h1.23q-.216.757-.774 1.104a2.26 2.26 0 0 1-1.222.348 3 3 0 0 1-.905-.131 1.8 1.8 0 0 1-.717-.42 1.9 1.9 0 0 1-.473-.775q-.167-.485-.167-1.158 0-.285.075-.652a2.4 2.4 0 0 1 .295-.746q.219-.379.666-.637.447-.26 1.141-.26.377 0 .746.109c.369.109.473.199.682.381q.315.272.512.773.195.5.195 1.238v.213h-3.115q.024.275.095.506a.9.9 0 0 0 .304.416q.231.188.668.188a.9.9 0 0 0 .481-.135.6.6 0 0 0 .283-.362m-1.799-1.39h1.852q-.044-.503-.314-.73a.92.92 0 0 0-.609-.227q-.82 0-.929.957m14.549-3.407v6.129h-1.194v-6.129zm-67.011-9.976v6.131h-1.28v-6.131zm14.6 4.267v-4.268h1.194v6.131h-1.28l-2.501-4.373h-.017v4.373h-1.194v-6.131h1.349l2.431 4.268zm14.696-3.185v5.049h-1.28v-5.049h-1.856v-1.082h4.988v1.082zm16.787-1.082v1.082h-3.254v1.293h2.989v1.082h-2.989v1.59h3.4v1.084H46.73v-6.131zm10.851 6.131v-6.131h3.1q.743 0 1.175.297t.594.695q.16.397.161.742 0 .514-.251.912a1.3 1.3 0 0 1-.697.547q.287.126.446.266.159.143.246.438.084.293.085.85 0 .522.013.734a.9.9 0 0 0 .067.326.34.34 0 0 0 .193.162v.162h-1.417q-.135-.46-.135-1.238 0-.474-.058-.705a.52.52 0 0 0-.268-.346q-.21-.111-.676-.111h-1.323v2.4zm1.256-3.434h1.502q.508 0 .751-.195.24-.195.239-.641 0-.32-.195-.561-.196-.243-.701-.242h-1.596zm18.314 1.57v-4.268h1.194v6.131h-1.279l-2.501-4.373h-.017v4.373h-1.194v-6.131h1.349l2.431 4.268zm13.388.598-.427 1.266h-1.349l2.185-6.131h1.478l2.161 6.131h-1.393l-.393-1.266zm1.129-3.482-.787 2.424h1.562l-.759-2.424zm15.378-.301v5.049h-1.281v-5.049h-1.855v-1.082h4.988v1.082zm13.457-1.082v6.131h-1.279v-6.131zm10.59 3.066q0-1.009.318-1.662.317-.657.795-.994c.478-.337.635-.377.953-.455q.472-.117.879-.117.406 0 .879.117c.473.117.633.229.951.453q.475.337.793.994.32.656.32 1.664 0 1.003-.32 1.66-.317.658-.797.996c-.48.338-.639.375-.955.453q-.476.117-.871.117c-.395 0-.553-.041-.873-.119q-.477-.117-.957-.455c-.48-.338-.586-.557-.797-.994q-.319-.654-.318-1.658m1.279 0q.001.607.154 1.029c.153.422.236.502.402.664q.248.244.533.346.288.103.574.104c.286.001.383-.035.574-.102s.369-.182.537-.346q.247-.245.4-.666.155-.422.154-1.029 0-.612-.154-1.033a1.8 1.8 0 0 0-.4-.666 1.5 1.5 0 0 0-.535-.346q-.29-.1-.576-.102c-.286-.002-.381.035-.574.104s-.371.182-.535.344a1.7 1.7 0 0 0-.4.666q-.153.421-.154 1.033m19.041 1.201v-4.268h1.193v6.131h-1.279l-2.5-4.373h-.018v4.373h-1.195v-6.131h1.35l2.432 4.268zm13.389.598-.428 1.266h-1.348l2.184-6.131h1.479l2.158 6.131h-1.391l-.393-1.266zm1.127-3.482-.785 2.424h1.561l-.758-2.424zm14.685-1.383v5.021h3.049v1.109h-4.328v-6.131z"/></g></svg>