<?xml version="1.0"?>
<svg xmlns="http://www.w3.org/2000/svg" width="1024" height="255" viewBox="-0.84225003 -0.84225003 119.72100006 29.75950106">
 <path d="m 112.644,28.075 -7.595,-10.7025 -14.19875,0 0,10.7025 -4.65,0 0,-28.075 22.14125,0 c 5.895,0 9.45875,3.41375 9.45875,8.8425 0,4.96125 -3.1,7.60125 -7.29,8.29625 l 7.52625,10.93625 -5.3925,0 z m 0.39125,-19.2325 c 0,-3.10625 -1.90375,-4.61625 -5.81375,-4.61625 l -16.37125,0 0,8.9175 16.79,0 c 3.49125,0 5.395,-1.55125 5.395,-4.30125 M 70.17287,28.075 56.68162,13.30125 l -8.455,6.2425 0,8.53125 -4.6575,0 0,-28.075 4.6575,0 0,14.54 L 67.88787,0 l 6.7075,0 -14.34875,10.625 15.9025,17.45 -5.97625,0 z m -43.57162,0 -13.4925,-14.77375 -8.45125,6.2425 0,8.53125 L 0,28.075 0,0 l 4.6575,0 0,14.54 L 24.31375,0 l 6.71,0 -14.34875,10.625 15.9025,17.45 -5.97625,0 z" style="fill:#53284f;fill-rule:nonzero;stroke:none" />
</svg>